<?xml version="1.0" encoding="utf-8"?>
<!-- Generator: Adobe Illustrator 16.0.0, SVG Export Plug-In . SVG Version: 6.00 Build 0)  -->
<!DOCTYPE svg PUBLIC "-//W3C//DTD SVG 1.1//EN" "http://www.w3.org/Graphics/SVG/1.1/DTD/svg11.dtd">
<svg version="1.1" id="Layer_1" xmlns="http://www.w3.org/2000/svg" xmlns:xlink="http://www.w3.org/1999/xlink" x="0px" y="0px"
	 width="400px" height="400px" viewBox="0 0 400 400" enable-background="new 0 0 400 400" xml:space="preserve">
<path fill="#FFD300" d="M200.022,0.013c-53.435,0-103.647,20.808-141.427,58.569C20.829,96.353,0,146.582,0,199.99
	c0,53.428,20.829,103.647,58.595,141.418c37.78,37.771,87.993,58.579,141.427,58.579c53.391,0,103.629-20.808,141.4-58.579
	C379.202,303.638,400,253.418,400,199.99c0-53.408-20.798-103.637-58.577-141.408C303.651,20.82,253.413,0.013,200.022,0.013
	 M200.022,366.093c-91.594,0-166.094-74.517-166.094-166.103c0-91.584,74.5-166.083,166.094-166.083
	c91.574,0,166.075,74.499,166.075,166.083C366.098,291.576,291.597,366.093,200.022,366.093"/>
<polygon fill="#FFD300" points="192.276,216.896 193.172,216.896 200.022,216.896 206.838,216.896 207.749,216.896 213.031,216.896 
	308.312,158.145 301.135,146.506 217.797,197.89 263.562,111.345 251.467,104.961 206.838,189.35 206.838,93.881 193.172,93.881 
	193.172,189.35 148.535,104.961 136.447,111.328 182.231,197.89 98.874,146.506 91.719,158.145 186.969,216.896 "/>
<polygon fill="#FFD300" points="208.896,234.246 191.122,234.246 149.215,214.121 60.59,214.121 60.59,238.71 75.75,246.008 
	176.863,246.008 188.942,261.49 211.075,261.49 223.146,246.008 324.25,246.008 339.434,238.71 339.434,214.121 250.804,214.121 "/>
</svg>
