<?xml version="1.0" encoding="utf-8"?>
<!-- Generator: Adobe Illustrator 16.0.0, SVG Export Plug-In . SVG Version: 6.00 Build 0)  -->
<!DOCTYPE svg PUBLIC "-//W3C//DTD SVG 1.1//EN" "http://www.w3.org/Graphics/SVG/1.1/DTD/svg11.dtd">
<svg version="1.1" id="Layer_1" xmlns="http://www.w3.org/2000/svg" xmlns:xlink="http://www.w3.org/1999/xlink" x="0px" y="0px"
	 width="527.966px" height="200px" viewBox="0 0 527.966 200" enable-background="new 0 0 527.966 200" xml:space="preserve">
<path fill="#231F20" d="M97.636,57.639c2.541-4.39,4.099-11.035,4.099-19.523c0-9.19-1.558-15.698-4.949-20.796
	C92.116,9.396,83.342,4.732,69.059,4.732H6.814v111.745h24.033V73.062H60.28l21.778,43.414h27.457L83.342,68.112
	C89.005,67.12,94.239,63.581,97.636,57.639 M76.127,48.728c-1.559,3.116-5.795,4.669-11.172,4.669H31.001V25.386h32.544
	c6.65,0,10.896,1.832,12.856,5.794c0.856,1.844,1.289,5.663,1.289,8.917C77.69,42.928,77.12,46.604,76.127,48.728"/>
<path fill="#231F20" d="M207.69,100.218c6.37-9.339,9.894-22.063,9.894-40.313c0-17.405-2.969-30.272-9.471-38.903
	c-8.479-11.6-22.777-17.97-44.983-17.97c-22.64,0-36.489,7.363-44.841,18.958c-6.645,8.773-9.624,21.651-9.624,38.195
	c0,17.547,3.249,30.843,10.189,40.324c8.065,11.6,22.486,17.531,44.275,17.531C185.057,118.04,199.915,111.812,207.69,100.218
	 M133.565,60.612c0-12.033,2.54-23.484,6.925-28.434c4.817-5.378,10.612-8.779,22.64-8.779c12.313,0,18.103,3.544,22.909,8.631
	c4.68,4.955,6.94,16.412,6.94,28.439c0,12.312-2.261,24.05-7.644,29.422c-4.531,4.526-10.464,8.071-22.074,8.071
	c-10.892,0-16.824-2.985-21.346-7.512C136.244,84.8,133.565,73.2,133.565,60.612"/>
<path fill="#231F20" d="M278.139,118.04c21.927,0,36.785-6.228,44.556-17.822c6.376-9.339,9.909-22.063,9.909-40.313
	c0-17.405-2.974-30.272-9.481-38.903c-8.483-11.6-22.782-17.965-44.983-17.965c-22.634,0-36.5,7.358-44.83,18.953
	c-6.655,8.773-9.629,21.651-9.629,38.195c0,17.547,3.254,30.843,10.179,40.324C241.924,112.108,256.36,118.04,278.139,118.04
	 M255.505,32.179c4.817-5.378,10.612-8.779,22.634-8.779c12.303,0,18.107,3.544,22.92,8.631c4.675,4.955,6.925,16.412,6.925,28.439
	c0,12.312-2.25,24.05-7.644,29.422c-4.521,4.526-10.464,8.071-22.059,8.071c-10.892,0-16.84-2.979-21.361-7.512
	c-5.656-5.651-8.34-17.251-8.34-29.839C248.58,48.579,251.115,37.128,255.505,32.179"/>
<polygon fill="#231F20" points="366.272,116.487 391.178,116.487 391.178,25.386 427.668,25.386 427.668,4.737 329.926,4.737 
	329.926,25.386 366.272,25.386 "/>
<path fill="#231F20" d="M494.148,51.701c-2.54-0.433-9.893-1.986-15.561-3.116c-18.25-3.677-24.89-6.931-24.89-15.139
	c0-6.371,3.682-10.465,22.212-10.465c14.145,0,20.23,3.254,23.193,9.477c0.855,1.701,1.553,4.252,1.553,5.515h25.181
	c0-2.815-1.12-7.062-2.535-10.739c-5.657-14.15-18.826-23.917-46.837-23.917c-32.813,0-48.09,12.735-48.09,31.688
	c0,18.535,13.428,28.582,35.217,32.681c4.96,0.993,13.168,2.547,16.422,3.106c18.086,3.396,22.771,6.65,22.771,15.841
	c0,7.369-5.941,12.033-22.924,12.033c-14.844,0-22.201-2.836-25.318-9.344c-0.845-1.696-1.553-5.093-1.553-7.062h-25.18
	c0,2.261,0.417,7.775,1.558,11.457c4.521,14.146,16.681,24.324,50.493,24.324c32.121,0,48.104-13.586,48.104-33.812
	C527.966,65.134,516.371,55.938,494.148,51.701"/>
<path fill="#231F20" d="M28.238,135.255c-11.256,0-18.287,3.592-22.798,9.418C1.686,149.569,0,156.759,0,166.103
	c0,9.947,1.912,17.294,5.673,22.424c4.511,5.884,11.774,8.879,22.565,8.879c10.865,0,18.371-3.133,22.513-8.959
	c3.735-5.05,5.731-12.164,5.731-22.423c0-9.867-1.69-17.056-5.361-21.657C46.531,138.397,39.331,135.255,28.238,135.255
	 M40.721,183.396c-2.689,2.604-6.196,4.522-12.408,4.522c-5.885,0-9.408-1.611-12.012-4.216c-3.439-3.359-5.05-9.788-5.05-17.368
	c0-7.188,1.447-13.701,4.22-16.607c2.816-3.068,6.191-4.896,12.768-4.896c6.661,0,10.1,1.907,12.937,4.818
	c2.837,2.91,4.204,9.344,4.204,16.611C45.379,173.678,44.012,180.254,40.721,183.396"/>
<polygon fill="#231F20" points="63.223,196.565 74.236,196.565 74.236,171.231 105,171.231 105,161.206 74.236,161.206 
	74.236,145.978 106.68,145.978 106.68,136.105 63.223,136.105 "/>
<path fill="#231F20" d="M163.24,161.967c-2.223-0.449-5.662-1.305-8.493-1.827c-9.339-1.923-13.549-3.904-13.549-8.742
	c0-3.962,2.683-6.799,12.946-6.799c8.019,0,11.779,1.981,13.612,5.9c0.46,0.993,0.919,2.372,0.919,3.212h11.399
	c0-1.537-0.607-3.756-1.294-5.673c-2.99-7.654-9.957-12.704-24.341-12.704c-17.141,0-24.794,6.968-24.794,16.761
	c0,9.655,7.188,15.233,18.281,17.294c3.068,0.618,6.66,1.378,8.874,1.843c9.577,1.986,12.794,3.824,12.794,9.345
	c0,4.585-3.371,7.638-13.316,7.638c-8.352,0-12.857-1.754-14.779-5.811c-0.455-1.066-0.92-3.068-0.92-4.057h-11.309
	c0,1.374,0.295,4.21,0.902,6.139c2.531,7.712,9.345,12.92,26.105,12.92c16.834,0,24.868-7.342,24.868-17.991
	C181.147,169.325,174.714,164.354,163.24,161.967"/>
<path fill="#231F20" d="M226.605,177.274c0,6.725-5.805,10.564-13.85,10.564c-9.254,0-14.309-3.903-14.309-10.644v-41.106h-11.024
	v42.1c0,13.623,10.644,19.132,25.106,19.132c14.689,0,25.096-6.116,25.096-18.514v-42.718h-11.02V177.274z"/>
<path fill="#231F20" d="M284.155,183.55c-2.372,2.525-6.116,4.279-11.938,4.279c-4.743,0-9.26-1.072-12.313-4.358
	c-2.989-3.206-4.822-8.415-4.822-17.136c0-7.59,1.226-13.094,4.284-16.38c2.821-3.063,6.74-4.659,12.466-4.659
	c6.508,0,10.179,1.517,12.715,4.744c1.917,2.287,2.984,4.817,3.222,8.562h11.319c-0.237-4.057-1.082-8.045-3.291-12.007
	c-3.449-6.503-10.49-11.341-23.727-11.341c-9.957,0-16.766,2.836-21.504,7.807c-4.67,5.056-6.973,12.63-6.973,23.115
	c0,11.643,2.684,19.375,7.654,24.245c4.832,4.844,11.938,6.983,20.97,6.983c11.029,0,18.145-3.75,22.19-9.486
	c3.598-4.897,4.527-9.73,4.754-13.322h-11.251C287.605,177.882,286.464,181.099,284.155,183.55"/>
<path fill="#231F20" d="M342.709,183.55c-2.377,2.525-6.123,4.279-11.938,4.279c-4.754,0-9.255-1.072-12.329-4.358
	c-2.979-3.206-4.808-8.415-4.808-17.136c0-7.59,1.211-13.094,4.279-16.38c2.831-3.063,6.734-4.659,12.471-4.659
	c6.508,0,10.18,1.517,12.704,4.744c1.917,2.287,2.989,4.817,3.217,8.562h11.319c-0.232-4.057-1.072-8.045-3.29-12.007
	c-3.45-6.503-10.479-11.341-23.712-11.341c-9.951,0-16.771,2.836-21.51,7.807c-4.674,5.056-6.972,12.63-6.972,23.115
	c0,11.643,2.678,19.375,7.653,24.245c4.828,4.844,11.949,6.983,20.977,6.983c11.018,0,18.133-3.75,22.189-9.486
	c3.592-4.897,4.506-9.73,4.733-13.322h-11.241C346.143,177.882,345.006,181.099,342.709,183.55"/>
<polygon fill="#231F20" points="374.703,171.231 406.613,171.231 406.613,161.285 374.703,161.285 374.703,145.978 407.912,145.978 
	407.912,136.105 363.911,136.105 363.911,196.565 408.293,196.565 408.293,186.698 374.703,186.698 "/>
<path fill="#231F20" d="M446.863,161.967c-2.225-0.449-5.658-1.305-8.5-1.827c-9.328-1.923-13.537-3.904-13.537-8.742
	c0-3.962,2.678-6.799,12.936-6.799c8.034,0,11.795,1.981,13.617,5.9c0.46,0.993,0.92,2.372,0.92,3.212h11.404
	c0-1.537-0.613-3.756-1.305-5.673c-2.98-7.654-9.947-12.704-24.341-12.704c-17.141,0-24.79,6.968-24.79,16.761
	c0,9.655,7.205,15.233,18.287,17.294c3.059,0.618,6.666,1.378,8.875,1.843c9.576,1.986,12.804,3.824,12.804,9.345
	c0,4.585-3.386,7.638-13.333,7.638c-8.346,0-12.861-1.754-14.764-5.811c-0.47-1.066-0.935-3.068-0.935-4.057h-11.31
	c0,1.374,0.297,4.21,0.909,6.139c2.535,7.712,9.333,12.92,26.099,12.92c16.83,0,24.863-7.342,24.863-17.991
	C464.764,169.325,458.342,164.354,446.863,161.967"/>
<path fill="#231F20" d="M503.113,161.967c-2.229-0.449-5.662-1.305-8.5-1.827c-9.328-1.923-13.549-3.904-13.549-8.742
	c0-3.962,2.684-6.799,12.941-6.799c8.035,0,11.796,1.981,13.618,5.9c0.47,0.993,0.925,2.372,0.925,3.212h11.404
	c0-1.537-0.607-3.756-1.305-5.673c-2.979-7.654-9.947-12.704-24.341-12.704c-17.146,0-24.784,6.968-24.784,16.761
	c0,9.655,7.189,15.233,18.276,17.294c3.059,0.618,6.671,1.378,8.88,1.843c9.57,1.986,12.787,3.824,12.787,9.345
	c0,4.585-3.375,7.638-13.32,7.638c-8.347,0-12.863-1.754-14.765-5.811c-0.47-1.066-0.93-3.068-0.93-4.057h-11.314
	c0,1.374,0.302,4.21,0.914,6.139c2.52,7.712,9.328,12.92,26.095,12.92c16.844,0,24.873-7.342,24.873-17.991
	C521.02,169.325,514.586,164.354,503.113,161.967"/>
</svg>
